<svg width="745" height="200" viewBox="0 0 745 200" fill="none" xmlns="http://www.w3.org/2000/svg">
<g clip-path="url(#clip0_2_71)">
<path fill-rule="evenodd" clip-rule="evenodd" d="M605.515 192.6C617.745 197.589 630.855 200.102 644.075 199.995C657.295 200.124 670.415 197.626 682.655 192.648C694.9 187.668 706.02 180.307 715.37 170.997C724.725 161.688 732.115 150.614 737.12 138.425C742.12 126.236 744.635 113.176 744.505 100.009C744.635 86.8405 742.125 73.7785 737.125 61.5875C732.12 49.3965 724.73 38.3211 715.38 29.009C706.025 19.6971 694.905 12.3356 682.66 7.35545C670.415 2.37524 657.3 -0.123746 644.075 0.00471254C630.855 -0.101994 617.75 2.41125 605.515 7.39805C593.285 12.3849 582.17 19.7455 572.825 29.0513C563.48 38.357 556.085 49.4218 551.075 61.601C546.065 73.78 543.535 86.8305 543.64 99.9915C543.535 113.154 546.06 126.206 551.065 138.387C556.075 150.568 563.47 161.635 572.82 170.943C582.165 180.25 593.28 187.613 605.515 192.6ZM719.045 99.9915C719.045 142.489 686.755 176.014 644.075 176.014C601.66 176.014 569.37 142.507 569.37 99.9915C569.37 57.4755 601.66 23.9688 644.075 23.9688C686.755 23.9688 719.045 57.4935 719.045 99.9915Z" fill="white"/>
<path d="M492.789 195.71H518.895V42.5964C518.88 32.019 514.65 21.8788 507.14 14.3995C499.631 6.92015 489.447 2.712 478.824 2.69788C471.221 2.718 463.78 4.88267 457.362 8.9412C450.944 12.9997 445.813 18.7859 442.563 25.6293L380.591 156.969C379.456 159.353 377.668 161.37 375.431 162.785C373.193 164.199 370.6 164.953 367.951 164.962C366.116 164.962 364.3 164.603 362.605 163.904C360.912 163.206 359.372 162.181 358.075 160.891C356.78 159.598 355.75 158.066 355.048 156.38C354.347 154.692 353.987 152.885 353.987 151.057V55.54C353.972 41.5296 348.376 28.0972 338.427 18.1905C328.478 8.2838 314.988 2.71202 300.918 2.69788C286.851 2.71672 273.367 8.2905 263.421 18.1968C253.476 28.103 247.881 41.5327 247.868 55.54V195.691H273.974V55.54C273.983 48.4252 276.824 41.6043 281.875 36.5718C286.925 31.5394 293.773 28.7057 300.918 28.6915C308.066 28.701 314.919 31.5326 319.973 36.5656C325.028 41.5985 327.872 48.4222 327.881 55.54V151.057C327.89 161.637 332.116 171.78 339.627 179.26C347.141 186.74 357.325 190.947 367.951 190.957C375.553 190.939 382.995 188.775 389.413 184.717C395.831 180.656 400.962 174.869 404.211 168.025L466.183 36.6855C467.319 34.302 469.109 32.2867 471.345 30.8723C473.582 29.4578 476.174 28.7019 478.824 28.6915C482.525 28.6962 486.075 30.1626 488.693 32.7692C491.31 35.3759 492.783 38.91 492.789 42.5964V195.71Z" fill="white"/>
<path d="M187.428 2.78589H212.729V195.727H187.428V2.78589Z" fill="white"/>
<path fill-rule="evenodd" clip-rule="evenodd" d="M160.329 99.2475C160.329 44.0732 116.665 2.78589 57.178 2.78589H0.5L0.500024 195.559H26.8895L57.178 195.727C116.665 195.727 160.329 154.421 160.329 99.2475ZM26.8895 26.4296L57.178 26.4295C103.845 26.4295 134.671 57.4085 134.671 99.2475C134.671 141.086 103.845 172.083 57.178 172.083H26.8895V26.4296Z" fill="white"/>
</g>
<defs>
<clipPath id="clip0_2_71">
<rect width="744.5" height="200" fill="white" transform="translate(0.5)"/>
</clipPath>
</defs>
</svg>
