<svg width="1233" height="332" viewBox="0 0 1233 332" fill="none" xmlns="http://www.w3.org/2000/svg">
<g clip-path="url(#clip0_623_1289)">
<path fill-rule="evenodd" clip-rule="evenodd" d="M1002 318.977C1022.25 327.239 1043.97 331.4 1065.86 331.223C1087.76 331.437 1109.48 327.299 1129.76 319.054C1150.04 310.807 1168.45 298.617 1183.94 283.198C1199.43 267.781 1211.67 249.44 1219.96 229.253C1228.24 209.067 1232.4 187.437 1232.19 165.631C1232.4 143.821 1228.25 122.189 1219.97 101.999C1211.68 81.8083 1199.44 63.4657 1183.95 48.0434C1168.46 32.6215 1150.04 20.4298 1129.76 12.1818C1109.48 3.93376 1087.76 -0.204944 1065.86 0.0078047C1043.97 -0.168918 1022.26 3.99342 1002 12.2523C981.745 20.5112 963.337 32.7016 947.86 48.1134C932.383 63.5252 920.136 81.8502 911.838 102.021C903.541 122.191 899.351 143.805 899.525 165.602C899.351 187.401 903.533 209.017 911.822 229.191C920.119 249.365 932.366 267.694 947.851 283.108C963.328 298.523 981.736 310.717 1002 318.977ZM1190.02 165.602C1190.02 235.984 1136.55 291.508 1065.86 291.508C995.615 291.508 942.138 236.014 942.138 165.602C942.138 95.1884 995.615 39.6962 1065.86 39.6962C1136.55 39.6962 1190.02 95.2182 1190.02 165.602Z" fill="#B7F2EB"/>
<path d="M815.308 324.126H858.543V70.5463C858.518 53.0285 851.513 36.2347 839.075 23.8478C826.638 11.4609 809.773 4.4915 792.18 4.4681C779.588 4.50142 767.264 8.08646 756.636 14.808C746.007 21.5295 737.508 31.1124 732.125 42.4461L629.489 259.964C627.61 263.914 624.649 267.253 620.944 269.597C617.238 271.939 612.943 273.189 608.556 273.204C605.516 273.204 602.511 272.609 599.703 271.451C596.899 270.295 594.348 268.597 592.2 266.46C590.055 264.319 588.35 261.781 587.188 258.989C586.026 256.194 585.429 253.201 585.429 250.174V91.9829C585.404 68.7794 576.136 46.5334 559.659 30.1264C543.182 13.7193 520.841 4.49152 497.538 4.4681C474.242 4.49931 451.91 13.7304 435.437 30.1367C418.968 46.5429 409.702 68.7846 409.68 91.9829V324.096H452.915V91.9829C452.93 80.1997 457.636 68.9033 466 60.5687C474.364 52.2341 485.705 47.541 497.538 47.5176C509.377 47.5333 520.727 52.2229 529.096 60.5583C537.468 68.8936 542.179 80.1947 542.194 91.9829V250.174C542.209 267.696 549.207 284.495 561.647 296.883C574.091 309.271 590.958 316.237 608.556 316.255C621.146 316.225 633.472 312.641 644.1 305.919C654.729 299.195 663.228 289.611 668.609 278.276L771.244 60.7568C773.125 56.8094 776.089 53.4719 779.792 51.1294C783.498 48.7868 787.791 47.5348 792.18 47.5176C798.31 47.5254 804.188 49.954 808.523 54.271C812.858 58.588 815.298 64.441 815.308 70.5463V324.126Z" fill="#B7F2EB"/>
<path d="M309.582 4.61387H351.484V324.154H309.582V4.61387Z" fill="#B7F2EB"/>
<path fill-rule="evenodd" clip-rule="evenodd" d="M264.701 164.369C264.701 72.9921 192.387 4.61387 93.8676 4.61387H0L3.93295e-05 323.876H43.7051L93.8676 324.154C192.387 324.154 264.701 255.746 264.701 164.369ZM43.7051 43.7715L93.8676 43.7714C171.155 43.7714 222.207 95.0775 222.207 164.369C222.207 233.661 171.155 284.997 93.8676 284.997H43.7051V43.7715Z" fill="#B7F2EB"/>
</g>
<defs>
<clipPath id="clip0_623_1289">
<rect width="1233.01" height="331.231" fill="white"/>
</clipPath>
</defs>
</svg>
