<?xml version="1.0" encoding="utf-8"?>
<!DOCTYPE svg PUBLIC "-//W3C//DTD SVG 1.1//EN" "http://www.w3.org/Graphics/SVG/1.1/DTD/svg11.dtd">
<svg version="1.1" xmlns="http://www.w3.org/2000/svg" xmlns:xlink="http://www.w3.org/1999/xlink" width="100%" height="100%" viewBox="0 0 32 32" fill="#666">
  <path d="M0 24.571v-17.143q0-2.125 1.509-3.634t3.634-1.509h17.143q2.125 0 3.634 1.509t1.509 3.634v17.143q0 2.125-1.509 3.634t-3.634 1.509h-17.143q-2.125 0-3.634-1.509t-1.509-3.634zM4.929 21.911q0 0.768 0.33 1.384t0.866 1.009 1.232 0.661 1.384 0.375 1.366 0.107q1.071 0 2.152-0.277t2.027-0.821 1.536-1.473 0.589-2.089q0-0.875-0.357-1.598t-0.875-1.188-1.036-0.848-0.875-0.786-0.357-0.795 0.277-0.759 0.67-0.705 0.786-0.75 0.67-1.063 0.277-1.473q0-1.071-0.402-1.777t-1.295-1.616h1.482l1.571-1.143h-4.732q-1.518 0-2.875 0.571t-2.277 1.75-0.92 2.732q0 1.661 1.152 2.759t2.83 1.098q0.393 0 0.768-0.054-0.232 0.518-0.232 0.964 0 0.786 0.714 1.679-3.125 0.214-4.589 1.125-0.839 0.518-1.348 1.304t-0.509 1.696zM7.054 21.393q0-0.821 0.446-1.429t1.17-0.92 1.464-0.446 1.509-0.134q0.357 0 0.554 0.036 0.036 0.018 0.411 0.295t0.464 0.339 0.411 0.321 0.438 0.393 0.339 0.402 0.304 0.464 0.161 0.473 0.080 0.563q0 1.357-1.045 2.009t-2.491 0.652q-0.732 0-1.438-0.17t-1.348-0.509-1.036-0.946-0.393-1.393zM8.25 10.125q0-1.089 0.571-1.857t1.643-0.768q0.946 0 1.67 0.804t1.036 1.804 0.313 1.911q0 1.071-0.589 1.777t-1.643 0.705q-0.946 0-1.661-0.759t-1.027-1.723-0.313-1.893zM17.143 15.429h2.286v2.857h1.143v-2.857h2.286v-1.143h-2.286v-2.286h-1.143v2.286h-2.286v1.143z"></path>
</svg>
