<?xml version="1.0" encoding="utf-8"?>
<!-- Generator: Adobe Illustrator 17.0.0, SVG Export Plug-In . SVG Version: 6.00 Build 0)  -->
<!DOCTYPE svg PUBLIC "-//W3C//DTD SVG 1.1//EN" "http://www.w3.org/Graphics/SVG/1.1/DTD/svg11.dtd">
<svg version="1.1" id="Layer_1" xmlns="http://www.w3.org/2000/svg" xmlns:xlink="http://www.w3.org/1999/xlink" x="0px" y="0px"
	 width="112px" height="109px" viewBox="0 0 112 109" enable-background="new 0 0 112 109" xml:space="preserve">
<g>
	<g>
		<path fill="#FFFFFF" d="M88.345,51.878c7.588-3.55,12.764-10.49,14.175-18.53C96.396,19.699,84.663,9.358,70.094,5.155
			c4.923,7.133,7.272,15.583,6.771,24.17C83.311,34.77,87.716,42.854,88.345,51.878z M27.27,38.845
			c-8.207-1.045-16.333,1.973-21.858,8.054C3.23,61.987,7.869,77.144,18.099,88.462c-0.527-8.64,1.856-17.306,6.831-24.483
			C22.19,55.352,23.32,46.248,27.27,38.845z M33.01,77.231c-2.997,8.079-1.755,17.193,3.642,24.215
			c12.155,4.943,26.051,5.146,38.643-0.035c-7.818-2.516-14.886-7.518-19.887-14.731C47.233,86.533,39.124,83.336,33.01,77.231z
			 M63.122,22.506c-1.506-8.158-7.053-15.383-15.229-18.732C33.778,6.015,20.745,14.27,12.76,26.935
			c8.115-2.487,16.74-2.178,24.529,0.639C44.816,22.312,54.043,20.448,63.122,22.506z M85.891,66.761
			c-3.086,7.399-8.722,13.188-15.678,16.61c6.194,5.604,14.805,7.758,22.852,5.834c9.054-9.587,13.884-22.198,13.9-35.009
			C101.549,60.502,94.131,64.974,85.891,66.761z"/>
		<g>
			<circle fill="#FFFFFF" cx="56.035" cy="54.196" r="15.972"/>
		</g>
	</g>
</g>
</svg>
