<?xml version="1.0" encoding="utf-8"?>
<!-- Generator: Adobe Illustrator 17.0.0, SVG Export Plug-In . SVG Version: 6.00 Build 0)  -->
<!DOCTYPE svg PUBLIC "-//W3C//DTD SVG 1.1//EN" "http://www.w3.org/Graphics/SVG/1.1/DTD/svg11.dtd">
<svg version="1.1" id="Layer_1" xmlns="http://www.w3.org/2000/svg" xmlns:xlink="http://www.w3.org/1999/xlink" x="0px" y="0px"
	 width="112px" height="109px" viewBox="0 0 112 109" enable-background="new 0 0 112 109" xml:space="preserve">
<g>
	<path fill="#449FD8" d="M88.345,51.574c7.588-3.55,12.764-10.49,14.175-18.53C96.396,19.395,84.663,9.054,70.094,4.851
		c4.923,7.133,7.272,15.583,6.771,24.17C83.311,34.466,87.716,42.55,88.345,51.574z M27.27,38.542
		c-8.207-1.045-16.333,1.973-21.858,8.054C3.23,61.683,7.869,76.84,18.099,88.158c-0.527-8.64,1.856-17.306,6.831-24.483
		C22.19,55.048,23.32,45.944,27.27,38.542z M33.01,76.928c-2.997,8.079-1.755,17.193,3.642,24.215
		c12.155,4.943,26.051,5.146,38.643-0.035c-7.818-2.516-14.886-7.518-19.887-14.731C47.233,86.23,39.124,83.032,33.01,76.928z
		 M63.122,22.202C61.615,14.044,56.069,6.819,47.892,3.47C33.778,5.711,20.745,13.966,12.76,26.631
		c8.115-2.487,16.74-2.178,24.529,0.639C44.816,22.008,54.043,20.144,63.122,22.202z M85.891,66.457
		c-3.086,7.399-8.722,13.188-15.678,16.61c6.194,5.604,14.805,7.758,22.852,5.834c9.054-9.587,13.884-22.198,13.9-35.009
		C101.549,60.198,94.131,64.67,85.891,66.457z"/>
	<g>
		<circle fill="#F04D5C" cx="56.035" cy="53.892" r="15.972"/>
	</g>
</g>
</svg>
