<?xml version="1.0" encoding="UTF-8"?>
<svg width="190px" height="29px" viewBox="0 0 190 29" version="1.1" xmlns="http://www.w3.org/2000/svg" xmlns:xlink="http://www.w3.org/1999/xlink">
    <title>primary-logo</title>
    <g id="Page-1" stroke="none" stroke-width="1" fill="none" fill-rule="evenodd">
        <g id="primary-logo" transform="translate(0.088979, 0.090724)" fill-rule="nonzero">
            <path d="M184.644966,7.14780836 C181.736709,7.14780836 179.378911,9.45056065 179.378911,12.2762487 C179.378911,14.9092762 181.479828,17.1661569 184.076159,17.4138634 L182.544049,19.5239551 C182.323865,19.8358817 182.287168,20.2212028 182.443131,20.5331294 C182.608269,20.8542303 182.938544,21.0377166 183.323865,21.0377166 L184.103682,21.0377166 C184.553223,21.0377166 185.030287,20.7900101 185.296342,20.432212 L188.626617,15.7533129 C188.764232,15.5606523 188.938544,15.2670744 189.039461,15.0744138 C189.12203,14.9092762 189.874324,13.4505606 189.874324,12.3588175 C189.874324,9.44138634 187.580746,7.14780836 184.644966,7.14780836 Z M182.112856,12.2945973 C182.112856,10.9367991 183.250471,9.83588175 184.635792,9.83588175 C186.011938,9.83588175 187.131204,10.9367991 187.131204,12.2945973 C187.131204,13.6523955 186.011938,14.7533129 184.635792,14.7533129 C183.277993,14.7533129 182.112856,13.6248725 182.112856,12.2945973 Z" id="Shape" fill="#23A7E0"></path>
            <path d="M93.2688188,8.00101937 C93.0578096,7.43221203 92.6174426,7.36799185 92.4339564,7.36799185 L91.4981766,7.36799185 C90.9660665,7.36799185 90.7367087,7.80835882 90.6633142,7.96432212 L85.0669839,19.7900101 C84.8834977,20.1294597 84.8743234,20.432212 85.0302867,20.6890927 C85.1679013,20.9092762 85.3972591,21.0377166 85.6633142,21.0377166 L86.7550573,21.0377166 C87.1403784,21.0377166 87.4064334,20.8909276 87.5532224,20.6065239 C87.599094,20.5056065 87.6357912,20.432212 87.6724885,20.3496432 L88.7825802,17.9643221 L95.1312041,17.9734964 L96.2688188,20.3955147 C96.452305,20.8175331 96.7550573,21.0285423 97.158727,21.0285423 L98.305516,21.0285423 C98.5807454,21.0285423 98.8192775,20.9001019 98.9568922,20.6799184 C99.0945068,20.4597349 99.1036812,20.1845056 98.9844151,19.9367991 L93.2688188,8.00101937 L93.2688188,8.00101937 Z M89.9201949,15.5331294 L91.9660665,11.2028542 L93.9935894,15.5331294 L89.9201949,15.5331294 Z M82.2596445,19.2120285 C82.2229472,18.9643221 82.0761582,18.7349643 81.8743234,18.5973496 C81.7091857,18.4872579 81.5165252,18.4597349 81.3697362,18.4597349 L75.4431307,18.4597349 L75.4431307,8.14780836 C75.4431307,7.67074414 75.1128555,7.34046891 74.6357912,7.34046891 L73.6633142,7.34046891 C73.1495527,7.34046891 72.8192775,7.66156983 72.8192775,8.16615698 L72.8192775,20.1753312 C72.8192775,20.6707441 73.18625,21.0377166 73.6816628,21.0377166 L81.5073509,21.0377166 C81.8101032,21.0377166 82.3146903,20.9276248 82.3146903,20.1569826 L82.2596445,19.2120285 L82.2596445,19.2120285 Z M64.3789105,7.36799185 L58.6908371,7.36799185 C58.1036812,7.36799185 57.7275344,7.77166157 57.7275344,8.38634047 L57.7275344,20.1845056 C57.7275344,20.6799184 58.0945068,21.0468909 58.5899197,21.0468909 L59.4798279,21.0468909 C60.0211123,21.0468909 60.3422133,20.7074413 60.3422133,20.138634 L60.3422133,15.3955147 L64.6357912,15.3955147 C67.1770756,15.3955147 68.9477178,13.7349643 68.9477178,11.3588175 C68.9477178,9.36799185 67.5348738,7.36799185 64.3789105,7.36799185 Z M60.3513876,9.80835882 L64.3789105,9.80835882 C65.0486353,9.80835882 65.5899197,10.0010193 65.9477178,10.3588175 C66.2137729,10.6340468 66.3605619,10.991845 66.3513876,11.3588175 C66.3238646,12.1478083 65.7000114,12.9367991 64.3789105,12.9367991 L60.3513876,12.9367991 L60.3513876,9.80835882 Z M111.571571,7.34964322 L98.8559747,7.34964322 C98.4798279,7.34964322 98.0669839,7.5606524 98.0669839,8.15698267 L98.0669839,8.99184506 C98.0669839,9.77166157 98.7000114,9.83588175 98.892672,9.83588175 L103.920195,9.83588175 L103.920195,20.1936799 C103.920195,20.7074413 104.259645,21.0560652 104.764232,21.0560652 L105.71836,21.0560652 C105.966067,21.0560652 106.544049,20.9734964 106.544049,20.1936799 L106.544049,9.82670744 L111.553223,9.82670744 C112.048636,9.82670744 112.39726,9.49643221 112.39726,9.01936799 L112.39726,8.12945974 C112.39726,7.73496432 112.149553,7.34964322 111.571571,7.34964322 L111.571571,7.34964322 Z M157.388085,19.7624872 C156.709186,18.9459734 155.544049,17.5423037 153.764232,15.3771661 C156.103682,15.2212028 157.700012,13.6065239 157.700012,11.3588175 C157.700012,9.36799185 156.287168,7.36799185 153.131204,7.36799185 L147.443131,7.36799185 C146.855975,7.36799185 146.479828,7.77166157 146.479828,8.38634047 L146.479828,20.1845056 C146.479828,20.6799184 146.846801,21.0468909 147.342214,21.0468909 L148.232122,21.0468909 C148.773406,21.0468909 149.094507,20.7074413 149.094507,20.138634 L149.094507,15.3955147 L150.378911,15.3955147 C151.131204,16.3129459 153.12203,18.7533129 154.690838,20.6340468 L154.709186,20.6523955 L154.727535,20.6707441 C154.791755,20.7349643 155.149553,21.0377166 155.617443,21.0377166 L156.819278,21.0377166 C157.250471,21.0377166 157.5257,20.9001019 157.65414,20.6340468 C157.755058,20.4138634 157.71836,20.1569826 157.553223,19.9551478 L157.388085,19.7624872 L157.388085,19.7624872 Z M149.103682,9.80835882 L153.131204,9.80835882 C153.800929,9.80835882 154.342214,10.0010193 154.700012,10.3588175 C154.966067,10.6340468 155.112856,10.991845 155.103682,11.3588175 C155.076159,12.1478083 154.452305,12.9367991 153.131204,12.9367991 L149.103682,12.9367991 L149.103682,9.80835882 Z M125.975241,7.34964322 L116.158727,7.34964322 C115.644966,7.34964322 115.232122,7.76248726 115.232122,8.29459735 L115.232122,20.2395514 C115.232122,20.6890927 115.571571,21.0468909 115.99359,21.0468909 L117.039461,21.0468909 C117.470654,21.0468909 117.819278,20.698267 117.819278,20.2670744 L117.819278,15.3771661 L124.599094,15.3771661 C125.030287,15.3771661 125.360562,15.0377166 125.360562,14.5973496 L125.360562,13.6248725 C125.360562,13.1936799 125.021113,12.8634046 124.599094,12.8634046 L117.819278,12.872579 L117.819278,9.872579 L125.883498,9.872579 C126.305516,9.872579 126.626617,9.58817533 126.71836,9.15698267 L126.727535,9.12028542 L126.736709,8.29459735 C126.773406,8.07441386 126.709186,7.83588175 126.562397,7.65239552 C126.433957,7.45056065 126.213773,7.34964322 125.975241,7.34964322 L125.975241,7.34964322 Z M174.177076,7.36799185 L173.360562,7.36799185 C172.901847,7.36799185 172.635792,7.58817533 172.479828,7.75331295 L168.259645,12.0377166 L163.956893,7.67991845 L163.92937,7.66156983 C163.709186,7.46890928 163.443131,7.36799185 163.149553,7.36799185 L162.388085,7.36799185 C161.920195,7.36799185 161.599094,7.68909276 161.599094,8.1753313 L161.599094,20.2028542 C161.599094,20.7074413 161.920195,21.0468909 162.406434,21.0468909 L163.39726,21.0468909 C163.901847,21.0468909 164.241296,20.698267 164.241296,20.1845056 L164.241296,11.8542303 L167.378911,14.9643221 C167.544049,15.1845056 167.846801,15.3955147 168.241296,15.3955147 C168.635792,15.3955147 168.938544,15.1936799 169.085333,15.0010193 L172.259645,11.845056 L172.259645,20.2212028 C172.259645,20.6890927 172.608269,21.0468909 173.05781,21.0468909 L174.066984,21.0468909 C174.479828,21.0468909 174.911021,20.7441386 174.911021,20.1845056 L174.911021,8.23037717 C174.920195,7.75331295 174.644966,7.43221203 174.177076,7.36799185 L174.177076,7.36799185 Z M135.800929,6.99184506 C131.690838,6.99184506 128.351388,10.2028542 128.351388,14.1569826 C128.351388,18.1111111 131.690838,21.3221202 135.800929,21.3221202 C139.920195,21.3221202 143.268819,18.1019368 143.268819,14.1569826 C143.268819,10.2028542 139.920195,6.99184506 135.800929,6.99184506 Z M135.800929,18.6799184 C133.149553,18.6799184 130.99359,16.6523955 130.99359,14.1478083 C130.99359,11.6523955 133.149553,9.61569827 135.800929,9.61569827 C138.46148,9.61569827 140.626617,11.6432212 140.626617,14.1478083 C140.626617,16.6523955 138.46148,18.6799184 135.800929,18.6799184 Z" id="Shape" fill="#3D3D57"></path>
            <path d="M52.3789105,10.6432212 L44.3605619,7.35881753 L42.865149,6.74413864 L36.1128555,3.98267075 L34.6082683,3.36799185 C34.6082683,3.36799185 26.5440481,0.0927624877 26.4247821,0.0285423037 C26.2963417,-0.0356778797 26.1220298,0.0285423037 26.1220298,0.0285423037 L17.9844151,3.35881753 L16.4890023,3.97349643 L9.66331417,6.76248726 L8.16790132,7.37716616 L0.0669838893,10.698267 C0.0669838893,10.698267 -0.0706307898,10.7624872 0.0486352653,10.8175331 C0.0853325133,10.8358817 4.17707564,12.5147808 9.12202976,14.5331294 C16.1403784,17.404689 24.865149,20.9734964 26.1220298,21.4872579 C26.2321215,21.5239551 26.3238646,21.5331294 26.4156078,21.4964322 C27.599094,21.0101936 36.2688188,17.4689092 43.2688188,14.5973496 C48.158727,12.5973496 52.2412958,10.9367991 52.3697362,10.8909276 C52.6541399,10.7533129 52.3789105,10.6432212 52.3789105,10.6432212 M41.3422133,7.37716616 L34.599094,10.138634 L34.5899197,10.138634 L27.8284518,7.37716616 L34.5807454,4.61569827 L41.3422133,7.37716616 L41.3422133,7.37716616 Z M33.0945068,10.7533129 L26.2871674,13.5331294 L19.5256995,10.7808358 L26.3330389,7.99184506 L33.0945068,10.7533129 L33.0945068,10.7533129 Z M26.2779931,1.22120286 L33.0761582,4.00101937 L26.3330389,6.77166157 L19.5165252,3.98267075 L26.2779931,1.22120286 Z M18.0211123,4.58817533 L24.8284518,7.37716616 L18.0302867,10.1661569 L11.1954243,7.37716616 L18.0211123,4.58817533 L18.0211123,4.58817533 Z M2.95689215,10.7533129 L9.70918573,7.99184506 L16.5440481,10.7808358 L9.78258022,13.5423037 L2.95689215,10.7533129 L2.95689215,10.7533129 Z M11.2779931,14.1569826 L18.0302867,11.3955147 L24.7917545,14.1569826 L18.0302867,16.9184505 L11.2779931,14.1569826 Z M26.2779931,20.285423 L19.5256995,17.5239551 L26.2871674,14.7533129 L26.2963417,14.7533129 L33.0486353,17.5147808 L26.2779931,20.285423 L26.2779931,20.285423 Z M34.5440481,16.9001019 L27.7917545,14.138634 L34.599094,11.3588175 L41.3605619,14.1111111 L34.5440481,16.9001019 L34.5440481,16.9001019 Z M42.8559747,13.5056065 L36.0945068,10.7533129 L42.8376261,7.99184506 L49.5899197,10.7533129 L42.8559747,13.5056065 Z" id="Shape" fill="#23A7E0"></path>
            <path d="M33.0945068,10.7533129 L26.2871674,13.5331294 L19.5256995,10.7808358 L26.3330389,7.99184506 L33.0945068,10.7533129 Z M41.3605619,14.1111111 L34.5440481,16.9001019 L27.7825802,14.138634 L34.599094,11.3588175 L41.3605619,14.1111111 Z M33.0486353,17.5147808 L26.2779931,20.285423 L19.5256995,17.5239551 L26.2871674,14.7533129 L26.2963417,14.7533129 L33.0486353,17.5147808 Z" id="Shape" fill="#1C8CC9"></path>
            <path d="M51.452305,17.9367991 L26.1036812,28.3037716 L0.736708659,17.9367991 L9.10368114,14.5147808 C16.1220298,17.3863404 24.8468004,20.9551478 26.1036812,21.4689092 C26.2137729,21.5056065 26.305516,21.5147808 26.3972591,21.4780835 C27.5807454,20.991845 36.2504701,17.4505606 43.2504701,14.579001 L51.452305,17.9367991 Z" id="Path" fill="#0D7DB7"></path>
            <polygon id="Path" fill="#6CCDEE" points="16.5348738 10.7808358 9.78258022 13.5423037 2.95689215 10.7533129 9.70918573 7.99184506"></polygon>
            <polygon id="Path" fill="#1C8CC9" points="24.7917545 14.1569826 18.0302867 16.9092762 11.2779931 14.1569826 18.0302867 11.3955147"></polygon>
            <path d="M24.8284518,7.37716616 L18.0302867,10.1661569 L11.1954243,7.37716616 L18.0211123,4.58817533 L24.8284518,7.37716616 Z M33.0761582,4.00101937 L26.3330389,6.77166157 L19.5165252,3.98267075 L26.2779931,1.22120286 L33.0761582,4.00101937 Z M41.3422133,7.37716616 L34.599094,10.138634 L34.5899197,10.138634 L27.8284518,7.37716616 L34.5807454,4.61569827 L41.3422133,7.37716616 Z M49.5899197,10.7533129 L42.8559747,13.5056065 L36.0945068,10.7533129 L42.8376261,7.99184506 L49.5899197,10.7533129 Z" id="Shape" fill="#6CCDEE"></path>
        </g>
    </g>
</svg>