<?xml version="1.0" standalone="no"?>
<!DOCTYPE svg PUBLIC "-//W3C//DTD SVG 20010904//EN"
 "http://www.w3.org/TR/2001/REC-SVG-20010904/DTD/svg10.dtd">
<svg version="1.0" xmlns="http://www.w3.org/2000/svg"
 width="180.000000pt" height="180.000000pt" viewBox="0 0 180.000000 180.000000"
 preserveAspectRatio="xMidYMid meet">

<g transform="translate(0.000000,180.000000) scale(0.100000,-0.100000)"
fill="#4169E1" stroke="none">
<path d="M580 1422 l-315 -117 3 -214 c4 -298 25 -400 113 -548 73 -122 257
-285 302 -267 11 4 157 326 157 347 0 3 -16 11 -35 17 -54 18 -122 92 -140
152 -19 65 -19 93 0 149 56 165 256 222 386 110 77 -65 107 -169 74 -260 -22
-64 -52 -99 -111 -132 -30 -17 -54 -37 -54 -45 0 -26 133 -336 147 -341 25
-10 58 6 128 62 122 97 210 219 255 355 32 96 39 150 46 391 l6 219 -33 14
c-48 20 -606 226 -610 226 -2 -1 -146 -54 -319 -118z"/>
</g>
</svg>
