<?xml version="1.0" encoding="UTF-8"?>
<!DOCTYPE svg PUBLIC "-//W3C//DTD SVG 1.1//EN" "http://www.w3.org/Graphics/SVG/1.1/DTD/svg11.dtd">
<svg xmlns="http://www.w3.org/2000/svg" height="1000" width="785.714">
    <path d="M454.77 479.386q4.464 35.154 -28.179 56.358t-62.217 3.348q-21.762 -9.486 -29.853 -32.364t-.279 -45.756 29.016 -32.364q20.088 -10.044 40.455 -6.696t35.712 19.809 15.345 37.665zm61.938 -11.718q-7.812 -59.706 -63.054 -91.512t-109.926 -7.254q-35.154 15.624 -56.079 49.383t-19.251 72.261q2.232 50.778 43.245 86.49t92.349 31.248q50.778 -4.464 84.816 -46.872t27.9 -93.744zm133.362 -302.436q-11.16 -15.066 -31.248 -24.831t-32.364 -12.276 -39.618 -6.975q-162.378 -26.226 -315.828 1.116 -23.994 3.906 -36.828 6.696t-30.69 12.276 -27.9 23.994q16.74 15.624 42.408 25.389t41.013 12.276 48.825 6.417q127.224 16.182 249.984 .558 35.154 -4.464 49.941 -6.696t40.455 -11.997 41.85 -25.947zm31.806 577.53q-4.464 14.508 -8.649 42.687t-7.812 46.872 -15.903 39.06 -32.364 31.527q-47.988 26.784 -105.741 39.897t-112.716 12.276 -112.437 -10.323q-25.668 -4.464 -45.477 -10.044t-42.687 -15.066 -40.734 -24.273 -29.016 -34.317q-13.95 -53.568 -31.806 -162.936l3.348 -8.928 10.044 -5.022q124.434 82.584 282.627 82.584t283.185 -82.584q11.718 3.348 13.392 12.834t-2.79 25.11 -4.464 20.646zm100.998 -536.238q-14.508 93.186 -61.938 365.49 -2.79 16.74 -15.066 31.248t-24.273 22.32 -30.411 17.298q-140.616 70.308 -340.38 49.104 -138.384 -15.066 -219.852 -77.562 -8.37 -6.696 -14.229 -14.787t-9.486 -19.53 -5.022 -18.972 -3.348 -22.041 -3.069 -19.53q-5.022 -27.9 -14.787 -83.7t-15.624 -90.117 -13.113 -82.305 -12.276 -88.164q1.674 -14.508 9.765 -27.063t17.577 -20.925 25.11 -16.74 25.668 -12.555 26.784 -10.323q69.75 -25.668 174.654 -35.712 211.482 -20.646 377.208 27.9 86.49 25.668 119.97 68.076 8.928 11.16 9.207 28.458t-3.069 30.132z" fill="#FFFFFF"/>
</svg>
