<?xml version="1.0" encoding="utf-8"?>
<!DOCTYPE svg PUBLIC "-//W3C//DTD SVG 1.1//EN" "http://www.w3.org/Graphics/SVG/1.1/DTD/svg11.dtd">
<svg version="1.1" xmlns="http://www.w3.org/2000/svg" fill="#666" xmlns:xlink="http://www.w3.org/1999/xlink" viewBox="0 0 215 215" xml:space="preserve">
  <g>
    <g>
      <path d="M107.479,1.075c-58.677,0-106.404,47.73-106.404,106.398c0,58.672,47.727,106.399,106.404,106.399
        c58.659,0,106.39-47.727,106.39-106.399C213.869,48.805,166.138,1.075,107.479,1.075z M147.449,134.627
        c-0.88,0.128-1.749,0.251-2.632,0.364c-8.03,1.038-16.602,1.743-25.561,2.078c-3.856,0.144-7.793,0.231-11.776,0.231
        c-3.995,0-7.92-0.086-11.788-0.231c-8.948-0.335-17.526-1.04-25.549-2.078c-0.716-5.987-1.201-12.216-1.443-18.623
        c-0.116-2.926-0.173-5.896-0.173-8.895c0-3.002,0.057-5.966,0.173-8.898c0.243-6.408,0.728-12.633,1.443-18.62
        c0.144-1.246,0.306-2.485,0.473-3.709c5.241-38.04,19.752-65.408,36.863-65.408c53.364,0,96.632,43.262,96.633,96.635
        C204.112,119.547,180.866,129.934,147.449,134.627z"/>
      <path d="M147.448,80.316c-0.969-1.414-2.009-2.768-3.117-4.069c-8.866-10.451-22.074-17.092-36.852-17.092
        c-4.791,0-9.057,7.333-11.788,18.72c-1.085,4.54-1.928,9.721-2.47,15.343c-0.428,4.505-0.658,9.297-0.658,14.255
        s0.231,9.751,0.658,14.252c4.508,0.428,9.293,0.657,14.258,0.657c4.959,0,9.744-0.23,14.252-0.657
        c9.911-0.94,18.466-2.846,24.527-5.357c5.986-2.476,9.528-5.559,9.528-8.895C155.786,97.407,152.712,88.057,147.448,80.316z"/>
    </g>
  </g>
</svg>
