<?xml version="1.0" encoding="UTF-8" standalone="no"?>
<svg width="36px" height="37px" viewBox="0 0 36 37" version="1.1" xmlns="http://www.w3.org/2000/svg" xmlns:xlink="http://www.w3.org/1999/xlink" xmlns:sketch="http://www.bohemiancoding.com/sketch/ns">
    <!-- Generator: Sketch 3.3.2 (12043) - http://www.bohemiancoding.com/sketch -->
    <title>Shape + g+</title>
    <desc>Created with Sketch.</desc>
    <defs>
        <linearGradient x1="3.84931507%" y1="34.473262%" x2="92.2854795%" y2="70.223262%" id="linearGradient-1">
            <stop stop-color="#3E2723" stop-opacity="0.2" offset="0%"></stop>
            <stop stop-color="#3E2723" stop-opacity="0.02" offset="100%"></stop>
        </linearGradient>
    </defs>
    <g id="Page-1" stroke="none" stroke-width="1" fill="none" fill-rule="evenodd" sketch:type="MSPage">
        <g id="A.1-Verify-Email-Screen_login-" sketch:type="MSArtboardGroup" transform="translate(-407.000000, -272.000000)">
            <g id="Shape-+-g+" sketch:type="MSLayerGroup" transform="translate(407.000000, 272.000000)">
                <path d="M35.9639881,15.3236905 L18.7923214,0.75202381 L10.7579762,0.75202381 C5.14494048,0.75202381 2.39345238,4.16386905 2.39345238,8.01595238 C2.39345238,10.9875595 4.8147619,14.2893452 8.88696429,14.2893452 L9.8775,14.2893452 C9.65738095,14.6195238 9.54732143,15.279881 9.54732143,15.720119 C9.54732143,16.8207143 9.98755952,17.3710119 10.6479167,18.031369 C8.88696429,18.1414286 5.58517857,18.4716071 3.16386905,20.0124405 C0.852619048,21.3331548 0.192261905,23.3142262 0.192261905,24.745 C0.192261905,25.9556548 0.6325,27.05625 1.62303571,28.0467857 L15.4905357,36.9142857 L35.9639881,36.9142857 L35.9639881,15.3236905 Z" id="Shape" fill="url(#linearGradient-1)" sketch:type="MSShapeGroup"></path>
                <g id="g+" transform="translate(0.192262, 1.192262)" sketch:type="MSShapeGroup">
                    <path d="M18.6000595,-0.110059524 L18.6000595,-0.440238095 L10.5657143,-0.110059524 C4.95267857,-0.110059524 2.20119048,3.30178571 2.20119048,7.15386905 C2.20119048,10.1254762 4.6225,13.4272619 8.69470238,13.4272619 L9.6852381,13.4272619 C9.46511905,13.7574405 9.35505952,14.4177976 9.35505952,14.9680952 C9.35505952,16.0686905 9.79529762,16.6189881 10.4556548,17.2793452 C8.69470238,17.3894048 5.39291667,17.7195833 2.97160714,19.2604167 C0.660357143,20.581131 0,22.5622024 0,23.9929762 C0,26.8545238 2.7514881,29.4959524 8.36452381,29.4959524 C15.0781548,29.4959524 18.6000595,25.8639881 18.6000595,22.2320238 C18.6000595,19.4805357 17.0592262,18.1598214 15.2982738,16.7290476 L13.8675,15.6284524 C13.4272619,15.2982738 12.9870238,14.8580357 12.9870238,13.9775595 C12.9870238,13.0970833 13.5373214,12.4367262 14.087619,12.1065476 C15.7385119,10.7858333 17.3894048,9.46511905 17.3894048,6.4935119 C17.3894048,3.74202381 15.7385119,2.31125 14.7479762,1.54083333 L16.9491667,1.54083333 L18.6000595,-0.110059524 L18.6000595,-0.110059524 Z M16.0686905,23.6627976 C16.0686905,25.8639881 14.087619,27.8450595 10.3455952,27.8450595 C6.16333333,27.8450595 3.52190476,25.7539286 3.52190476,23.1125 C3.52190476,20.3610119 6.05327381,19.3704762 6.82369048,19.0402976 C8.47458333,18.49 10.5657143,18.3799405 10.8958929,18.3799405 L11.776369,18.3799405 C14.7479762,20.581131 16.0686905,21.6817262 16.0686905,23.6627976 L16.0686905,23.6627976 Z M10.5657143,12.1065476 C7.26392857,12.1065476 5.50297619,8.25446429 5.50297619,5.28285714 C5.50297619,2.53136905 7.26392857,1.21065476 9.13494048,1.21065476 C12.6568452,1.21065476 14.4177976,5.61303571 14.4177976,8.25446429 C14.3077381,11.4461905 11.55625,12.1065476 10.5657143,12.1065476 L10.5657143,12.1065476 Z M26.4142857,12.9870238 L26.4142857,8.03434524 L24.7633929,8.03434524 L24.7633929,12.9870238 L19.8107143,12.9870238 L19.8107143,14.6379167 L24.7633929,14.6379167 L24.7633929,19.5905952 L26.4142857,19.5905952 L26.4142857,14.6379167 L31.3669643,14.6379167 L31.3669643,12.9870238 L26.4142857,12.9870238 L26.4142857,12.9870238 Z" id="Shape" opacity="0.16" fill="#3E2723"></path>
                    <path d="M18.6000595,-0.440238095 L10.5657143,-0.440238095 C4.95267857,-0.440238095 2.20119048,2.97160714 2.20119048,6.82369048 C2.20119048,9.79529762 4.6225,13.0970833 8.69470238,13.0970833 L9.6852381,13.0970833 C9.46511905,13.4272619 9.35505952,14.087619 9.35505952,14.5278571 C9.35505952,15.6284524 9.79529762,16.17875 10.4556548,16.8391071 C8.69470238,16.9491667 5.39291667,17.2793452 2.97160714,18.8201786 C0.660357143,20.1408929 0,22.1219643 0,23.5527381 C0,26.4142857 2.7514881,29.0557143 8.36452381,29.0557143 C15.0781548,29.0557143 18.6000595,25.42375 18.6000595,21.7917857 C18.6000595,19.0402976 17.0592262,17.7195833 15.2982738,16.2888095 L13.8675,15.1882143 C13.4272619,14.8580357 12.9870238,14.4177976 12.9870238,13.5373214 C12.9870238,12.6568452 13.5373214,11.9964881 14.087619,11.6663095 C15.7385119,10.3455952 17.3894048,9.02488095 17.3894048,6.05327381 C17.3894048,3.30178571 15.7385119,1.8710119 14.7479762,1.10059524 L16.9491667,1.10059524 L18.6000595,-0.440238095 L18.6000595,-0.440238095 Z M16.0686905,23.332619 C16.0686905,25.5338095 14.087619,27.514881 10.3455952,27.514881 C6.16333333,27.514881 3.52190476,25.42375 3.52190476,22.7823214 C3.52190476,20.0308333 6.05327381,19.0402976 6.82369048,18.710119 C8.47458333,18.1598214 10.5657143,18.0497619 10.8958929,18.0497619 L11.776369,18.0497619 C14.7479762,20.2509524 16.0686905,21.3515476 16.0686905,23.332619 L16.0686905,23.332619 Z M10.5657143,11.8864286 C7.26392857,11.8864286 5.50297619,8.03434524 5.50297619,5.0627381 C5.50297619,2.31125 7.26392857,0.990535714 9.13494048,0.990535714 C12.6568452,0.990535714 14.4177976,5.39291667 14.4177976,8.03434524 C14.3077381,11.2260714 11.55625,11.8864286 10.5657143,11.8864286 L10.5657143,11.8864286 Z M26.4142857,12.6568452 L26.4142857,7.70416667 L24.7633929,7.70416667 L24.7633929,12.6568452 L19.8107143,12.6568452 L19.8107143,14.3077381 L24.7633929,14.3077381 L24.7633929,19.2604167 L26.4142857,19.2604167 L26.4142857,14.3077381 L31.3669643,14.3077381 L31.3669643,12.6568452 L26.4142857,12.6568452 L26.4142857,12.6568452 Z" id="Shape" fill="#F1F1F1"></path>
                    <path d="M9.79529762,13.3172024 L9.79529762,13.0970833 C9.57517857,13.4272619 9.46511905,14.087619 9.46511905,14.5278571 L9.46511905,14.6379167 C9.46511905,14.1976786 9.57517857,13.647381 9.79529762,13.3172024 L9.79529762,13.3172024 Z M10.4556548,16.9491667 C8.69470238,17.0592262 5.39291667,17.3894048 2.97160714,18.9302381 C0.660357143,20.2509524 0,22.2320238 0,23.6627976 L0,23.7728571 C0.110059524,22.3420833 0.770416667,20.4710714 2.97160714,19.1503571 C5.39291667,17.7195833 8.69470238,17.2793452 10.4556548,17.1692857 L10.4556548,16.9491667 L10.4556548,16.9491667 Z M10.3455952,27.514881 C6.27339286,27.514881 3.63196429,25.5338095 3.52190476,22.892381 L3.52190476,23.0024405 C3.52190476,25.643869 6.16333333,27.735 10.3455952,27.735 C14.087619,27.735 16.0686905,25.7539286 16.0686905,23.5527381 L16.0686905,23.4426786 C15.958631,25.643869 13.9775595,27.514881 10.3455952,27.514881 L10.3455952,27.514881 Z M14.3077381,8.25446429 L14.3077381,8.14440476 C14.1976786,11.336131 11.55625,11.8864286 10.4556548,11.8864286 C7.26392857,11.8864286 5.39291667,8.14440476 5.39291667,5.17279762 L5.39291667,5.28285714 C5.39291667,8.25446429 7.15386905,12.1065476 10.4556548,12.1065476 C11.55625,12.1065476 14.3077381,11.4461905 14.3077381,8.25446429 L14.3077381,8.25446429 Z M15.4083333,16.2888095 L13.9775595,15.1882143 C13.5373214,14.8580357 13.2071429,14.4177976 13.0970833,13.647381 L13.0970833,13.7574405 C13.0970833,14.6379167 13.5373214,15.0781548 13.9775595,15.4083333 L15.4083333,16.5089286 C17.0592262,17.9397024 18.6000595,19.2604167 18.710119,21.7917857 L18.710119,21.6817262 C18.6000595,19.0402976 17.0592262,17.8296429 15.4083333,16.2888095 L15.4083333,16.2888095 Z M26.4142857,12.6568452 L26.4142857,12.8769643 L31.3669643,12.8769643 L31.3669643,12.6568452 L26.4142857,12.6568452 L26.4142857,12.6568452 Z M17.4994643,6.27339286 L17.4994643,6.16333333 C17.4994643,3.41184524 15.8485714,1.98107143 14.8580357,1.21065476 L14.8580357,1.54083333 C15.8485714,2.20119048 17.4994643,3.63196429 17.4994643,6.27339286 L17.4994643,6.27339286 Z M26.4142857,7.70416667 L24.7633929,7.70416667 L24.7633929,7.92428571 L26.4142857,7.92428571 L26.4142857,7.70416667 L26.4142857,7.70416667 Z M2.31125,6.82369048 L2.31125,6.93375 C2.42130952,3.08166667 5.0627381,-0.110059524 10.5657143,-0.110059524 L18.3799405,-0.110059524 L18.710119,-0.440238095 L10.6757738,-0.440238095 C4.95267857,-0.440238095 2.31125,2.97160714 2.31125,6.82369048 L2.31125,6.82369048 Z M19.8107143,12.9870238 L24.7633929,12.9870238 L24.7633929,12.7669048 L19.8107143,12.7669048 L19.8107143,12.9870238 L19.8107143,12.9870238 Z" id="Shape" fill-opacity="0.64" fill="#FFFFFF"></path>
                </g>
            </g>
        </g>
    </g>
</svg>

