<svg version="1.1" id="Layer_1" xmlns="http://www.w3.org/2000/svg" xmlns:xlink="http://www.w3.org/1999/xlink" x="0px" y="0px"
	 width="100%" viewBox="0 0 256 224" enable-background="new 0 0 256 224" xml:space="preserve">


<path fill="#02AAE7" opacity="1.000000" stroke="none" 
	d="
M257.000000,112.625000 
	C251.257812,115.217911 245.497314,117.389755 239.776550,119.661591 
	C213.463348,130.111084 187.152496,140.566589 160.860870,151.070175 
	C153.614227,153.965225 146.087753,156.408447 139.320053,160.187820 
	C131.659607,164.465714 124.873627,162.255997 117.893799,159.402206 
	C90.315506,148.126434 62.798058,136.701691 35.209000,125.452469 
	C24.049248,120.902161 12.763660,116.660477 1.267668,112.639175 
	C1.000000,112.250000 1.000000,111.500000 0.999999,110.375000 
	C8.277456,107.342934 15.617054,104.843208 22.820349,101.998360 
	C41.985641,94.429283 61.114849,86.767448 80.214752,79.034676 
	C94.851616,73.108810 109.374168,66.896881 124.071571,61.128139 
	C126.375931,60.223682 129.636566,60.227657 131.954025,61.117043 
	C160.136429,71.932770 188.261536,82.900856 216.321960,94.029976 
	C229.799973,99.375519 243.109726,105.145355 256.747833,110.361526 
	C257.000000,110.750000 257.000000,111.500000 257.000000,112.625000 
M96.811577,85.672142 
	C91.808380,82.929550 86.954018,82.797966 81.669449,85.416939 
	C76.773163,87.843491 71.447525,89.399124 66.326431,91.378326 
	C63.193043,92.589333 60.088848,93.875877 55.820240,95.591110 
	C67.285797,100.503647 77.472740,104.946030 87.751778,109.164009 
	C88.902641,109.636253 90.677155,109.095993 91.989845,108.583321 
	C99.885933,105.499565 107.747879,102.326126 115.583000,99.090103 
	C117.600105,98.257011 119.479698,97.090950 122.569382,95.479759 
	C113.339165,91.958549 105.442909,88.946228 96.811577,85.672142 
M111.370399,119.153885 
	C123.428261,126.441719 135.415405,125.765533 147.364243,118.862999 
	C148.074677,118.452599 148.905945,118.253624 149.675858,117.943520 
	C153.257996,116.500809 156.838287,115.053604 160.709229,113.490944 
	C159.890427,112.483315 159.667252,111.940361 159.281174,111.772842 
	C149.843567,107.677834 140.429459,103.521797 130.893250,99.668396 
	C129.449020,99.084808 127.266945,99.558281 125.691345,100.196999 
	C117.232651,103.625946 108.846535,107.235672 100.468338,110.859253 
	C99.406151,111.318649 98.537415,112.225319 96.871140,113.441422 
	C102.072746,115.483429 106.365868,117.168793 111.370399,119.153885 
M140.094269,136.452972 
	C132.787582,132.103424 125.492386,131.833878 118.096420,136.322281 
	C116.706322,137.165909 114.976463,137.434387 113.433052,138.043427 
	C108.138588,140.132675 102.857300,142.255341 97.018883,144.585617 
	C98.197838,145.662811 98.589012,146.248016 99.131645,146.482117 
	C108.426933,150.491913 117.700035,154.560303 127.093819,158.326996 
	C128.542740,158.907959 130.721359,158.445587 132.295792,157.807541 
	C140.754700,154.379593 149.140564,150.769638 157.518829,147.146606 
	C158.585068,146.685532 159.459305,145.780487 161.220062,144.501999 
	C153.773468,141.669342 147.293350,139.204315 140.094269,136.452972 
M194.171600,92.278374 
	C188.894058,90.227081 183.430344,88.548668 178.385986,86.030281 
	C172.054260,82.869186 166.298050,82.957146 159.926086,86.099709 
	C152.993927,89.518555 145.610107,92.021576 136.934830,95.524948 
	C148.242722,100.573540 158.040741,105.035072 167.944611,109.247749 
	C169.048798,109.717438 170.847015,108.994583 172.166214,108.446510 
	C179.241364,105.507133 186.274689,102.466316 193.305069,99.420403 
	C195.915634,98.289383 198.478958,97.049377 201.978424,95.437897 
	C198.836136,94.168861 196.850510,93.366951 194.171600,92.278374 
M207.465256,99.862556 
	C197.803802,104.031746 188.142334,108.200943 177.103210,112.964638 
	C182.199081,115.009476 185.802490,116.545738 189.470535,117.907951 
	C196.464340,120.505272 203.519928,125.051811 210.503372,124.966850 
	C217.498413,124.881752 224.444611,120.150864 231.396225,117.415665 
	C234.518433,116.187187 237.601746,114.859802 240.702698,113.577301 
	C240.663651,113.121727 240.624588,112.666153 240.585541,112.210571 
	C230.916901,107.913055 221.265411,103.575760 211.551788,99.382462 
	C210.628662,98.983955 209.316376,99.486954 207.465256,99.862556 
M60.682640,103.817612 
	C53.971191,99.804985 47.393986,97.850197 39.841255,102.487495 
	C34.935856,105.499352 29.228027,107.198799 23.896568,109.524895 
	C21.711479,110.478241 19.570799,111.533371 16.107779,113.150116 
	C24.728895,116.476181 32.139275,118.864189 39.119629,122.162315 
	C45.930225,125.380234 52.110283,125.682274 58.912640,122.141342 
	C64.487579,119.239319 70.589417,117.354904 76.431961,114.956726 
	C77.538033,114.502716 78.523392,113.754616 80.343010,112.684212 
	C73.437820,109.568527 67.405373,106.846634 60.682640,103.817612 
M160.215454,138.263199 
	C165.582748,141.316528 170.829178,141.801270 176.715500,139.044922 
	C183.481583,135.876633 190.671814,133.618301 197.651459,130.897141 
	C198.626160,130.517120 199.450607,129.751770 200.610199,128.990417 
	C199.747101,128.256363 199.325836,127.693657 198.766037,127.452507 
	C189.593567,123.501160 180.451187,119.470596 171.171921,115.785530 
	C169.579361,115.153084 167.200241,115.583473 165.503113,116.289185 
	C157.667450,119.547470 149.934418,123.054398 142.191132,126.531311 
	C140.940887,127.092705 139.824646,127.952599 137.732590,129.234467 
	C145.677032,132.435730 152.585388,135.219498 160.215454,138.263199 
M114.665771,72.167511 
	C108.761139,74.468002 102.856506,76.768501 96.951866,79.068993 
	C107.190300,84.041725 117.281151,87.877434 127.403038,91.629402 
	C128.276520,91.953186 129.465439,92.020950 130.322083,91.704620 
	C140.587555,87.913872 150.817902,84.027962 162.519455,79.615639 
	C155.085556,76.729523 148.848389,74.912468 143.192307,71.976105 
	C133.765472,67.082161 124.674522,66.435860 114.665771,72.167511 
M95.789909,139.251236 
	C104.245476,136.007828 112.701042,132.764420 121.538094,129.374680 
	C120.700584,128.577759 120.422394,128.117416 120.025597,127.964157 
	C110.561630,124.309013 101.123924,120.577850 91.573479,117.162384 
	C89.918251,116.570435 87.630211,116.929123 85.883774,117.550011 
	C77.422729,120.558014 69.037827,123.781990 60.651485,126.996086 
	C59.563927,127.412903 58.624538,128.216309 56.690369,129.414276 
	C66.427422,133.137344 75.166725,136.259598 83.712730,139.842865 
	C87.738350,141.530792 91.345467,141.752197 95.789909,139.251236 
z"/>
<path fill="#017BB6" opacity="1.000000" stroke="none" 
	d="
M67.401276,140.724533 
	C81.736168,146.582962 95.711708,152.301270 109.728218,157.917313 
	C115.371742,160.178497 120.971619,162.817307 126.849380,164.120758 
	C130.183319,164.860107 134.319366,163.927307 137.615784,162.578476 
	C160.739151,153.116852 183.763962,143.411835 206.749298,133.618073 
	C210.362900,132.078354 213.437607,131.941788 217.129318,133.497269 
	C228.631622,138.343704 240.296280,142.804871 253.428711,148.023758 
	C245.861755,151.121536 239.626694,153.703690 233.369385,156.230743 
	C200.018402,169.699677 166.685181,183.213531 133.259338,196.494278 
	C130.800354,197.471283 127.313980,197.611893 124.887085,196.659180 
	C85.300781,181.119278 45.807484,165.342468 6.301921,149.597214 
	C5.570155,149.305573 4.944299,148.748184 3.618174,147.897064 
	C13.304692,144.135681 23.133316,141.627167 31.583673,136.736954 
	C44.884472,129.039825 55.716930,135.029327 67.401276,140.724533 
z"/>
<path fill="#67CEF2" opacity="1.000000" stroke="none" 
	d="
M97.179123,85.803024 
	C105.442909,88.946228 113.339165,91.958549 122.569382,95.479759 
	C119.479698,97.090950 117.600105,98.257011 115.583000,99.090103 
	C107.747879,102.326126 99.885933,105.499565 91.989845,108.583321 
	C90.677155,109.095993 88.902641,109.636253 87.751778,109.164009 
	C77.472740,104.946030 67.285797,100.503647 55.820240,95.591110 
	C60.088848,93.875877 63.193043,92.589333 66.326431,91.378326 
	C71.447525,89.399124 76.773163,87.843491 81.669449,85.416939 
	C86.954018,82.797966 91.808380,82.929550 97.179123,85.803024 
z"/>
<path fill="#018CCC" opacity="1.000000" stroke="none" 
	d="
M111.014694,119.004021 
	C106.365868,117.168793 102.072746,115.483429 96.871140,113.441422 
	C98.537415,112.225319 99.406151,111.318649 100.468338,110.859253 
	C108.846535,107.235672 117.232651,103.625946 125.691345,100.196999 
	C127.266945,99.558281 129.449020,99.084808 130.893250,99.668396 
	C140.429459,103.521797 149.843567,107.677834 159.281174,111.772842 
	C159.667252,111.940361 159.890427,112.483315 160.709229,113.490944 
	C156.838287,115.053604 153.257996,116.500809 149.675858,117.943520 
	C148.905945,118.253624 148.074677,118.452599 147.364243,118.862999 
	C135.415405,125.765533 123.428261,126.441719 111.014694,119.004021 
z"/>
<path fill="#018CCC" opacity="1.000000" stroke="none" 
	d="
M140.453751,136.596130 
	C147.293350,139.204315 153.773468,141.669342 161.220062,144.501999 
	C159.459305,145.780487 158.585068,146.685532 157.518829,147.146606 
	C149.140564,150.769638 140.754700,154.379593 132.295792,157.807541 
	C130.721359,158.445587 128.542740,158.907959 127.093819,158.326996 
	C117.700035,154.560303 108.426933,150.491913 99.131645,146.482117 
	C98.589012,146.248016 98.197838,145.662811 97.018883,144.585617 
	C102.857300,142.255341 108.138588,140.132675 113.433052,138.043427 
	C114.976463,137.434387 116.706322,137.165909 118.096420,136.322281 
	C125.492386,131.833878 132.787582,132.103424 140.453751,136.596130 
z"/>
<path fill="#66CDF2" opacity="1.000000" stroke="none" 
	d="
M194.518250,92.421707 
	C196.850510,93.366951 198.836136,94.168861 201.978424,95.437897 
	C198.478958,97.049377 195.915634,98.289383 193.305069,99.420403 
	C186.274689,102.466316 179.241364,105.507133 172.166214,108.446510 
	C170.847015,108.994583 169.048798,109.717438 167.944611,109.247749 
	C158.040741,105.035072 148.242722,100.573540 136.934830,95.524948 
	C145.610107,92.021576 152.993927,89.518555 159.926086,86.099709 
	C166.298050,82.957146 172.054260,82.869186 178.385986,86.030281 
	C183.430344,88.548668 188.894058,90.227081 194.518250,92.421707 
z"/>
<path fill="#66CDF2" opacity="1.000000" stroke="none" 
	d="
M207.825012,99.716995 
	C209.316376,99.486954 210.628662,98.983955 211.551788,99.382462 
	C221.265411,103.575760 230.916901,107.913055 240.585541,112.210571 
	C240.624588,112.666153 240.663651,113.121727 240.702698,113.577301 
	C237.601746,114.859802 234.518433,116.187187 231.396225,117.415665 
	C224.444611,120.150864 217.498413,124.881752 210.503372,124.966850 
	C203.519928,125.051811 196.464340,120.505272 189.470535,117.907951 
	C185.802490,116.545738 182.199081,115.009476 177.103210,112.964638 
	C188.142334,108.200943 197.803802,104.031746 207.825012,99.716995 
z"/>
<path fill="#66CDF2" opacity="1.000000" stroke="none" 
	d="
M61.027786,103.971176 
	C67.405373,106.846634 73.437820,109.568527 80.343010,112.684212 
	C78.523392,113.754616 77.538033,114.502716 76.431961,114.956726 
	C70.589417,117.354904 64.487579,119.239319 58.912640,122.141342 
	C52.110283,125.682274 45.930225,125.380234 39.119629,122.162315 
	C32.139275,118.864189 24.728895,116.476181 16.107779,113.150116 
	C19.570799,111.533371 21.711479,110.478241 23.896568,109.524895 
	C29.228027,107.198799 34.935856,105.499352 39.841255,102.487495 
	C47.393986,97.850197 53.971191,99.804985 61.027786,103.971176 
z"/>
<path fill="#018CCC" opacity="1.000000" stroke="none" 
	d="
M159.854599,138.133240 
	C152.585388,135.219498 145.677032,132.435730 137.732590,129.234467 
	C139.824646,127.952599 140.940887,127.092705 142.191132,126.531311 
	C149.934418,123.054398 157.667450,119.547470 165.503113,116.289185 
	C167.200241,115.583473 169.579361,115.153084 171.171921,115.785530 
	C180.451187,119.470596 189.593567,123.501160 198.766037,127.452507 
	C199.325836,127.693657 199.747101,128.256363 200.610199,128.990417 
	C199.450607,129.751770 198.626160,130.517120 197.651459,130.897141 
	C190.671814,133.618301 183.481583,135.876633 176.715500,139.044922 
	C170.829178,141.801270 165.582748,141.316528 159.854599,138.133240 
z"/>
<path fill="#66CDF2" opacity="1.000000" stroke="none" 
	d="
M115.025162,72.027054 
	C124.674522,66.435860 133.765472,67.082161 143.192307,71.976105 
	C148.848389,74.912468 155.085556,76.729523 162.519455,79.615639 
	C150.817902,84.027962 140.587555,87.913872 130.322083,91.704620 
	C129.465439,92.020950 128.276520,91.953186 127.403038,91.629402 
	C117.281151,87.877434 107.190300,84.041725 96.951866,79.068993 
	C102.856506,76.768501 108.761139,74.468002 115.025162,72.027054 
z"/>
<path fill="#018DCC" opacity="1.000000" stroke="none" 
	d="
M95.434891,139.391800 
	C91.345467,141.752197 87.738350,141.530792 83.712730,139.842865 
	C75.166725,136.259598 66.427422,133.137344 56.690369,129.414276 
	C58.624538,128.216309 59.563927,127.412903 60.651485,126.996086 
	C69.037827,123.781990 77.422729,120.558014 85.883774,117.550011 
	C87.630211,116.929123 89.918251,116.570435 91.573479,117.162384 
	C101.123924,120.577850 110.561630,124.309013 120.025597,127.964157 
	C120.422394,128.117416 120.700584,128.577759 121.538094,129.374680 
	C112.701042,132.764420 104.245476,136.007828 95.434891,139.391800 
z"/>
</svg>