<svg id="Layer_1" data-name="Layer 1" xmlns="http://www.w3.org/2000/svg" viewBox="-10 0 210 185">
    <defs>
        <style>.cls-1{opacity:0.98;}.cls-2{fill:#ed1944;}</style>
    </defs>
    <title>OpenStack_Logo_Mark</title>
    <g class="cls-1">
        <path class="cls-2" d="M461.82,215.24h-150a17.17,17.17,0,0,0-17.12,17.12v40.35h41.61v-6.59a9.26,9.26,0,0,1,9.26-9.26h82.53a9.26,9.26,0,0,1,9.26,9.26v6.59H479V232.36A17.18,17.18,0,0,0,461.82,215.24Z" transform="translate(-294.67 -215.24)"/>
        <path class="cls-2" d="M437.33,344.72a9.27,9.27,0,0,1-9.26,9.26H345.54a9.27,9.27,0,0,1-9.26-9.26v-6.59H294.67v40.34a17.17,17.17,0,0,0,17.12,17.13h150A17.18,17.18,0,0,0,479,378.47V338.13H437.33Z" transform="translate(-294.67 -215.24)"/>
        <rect class="cls-2" y="69.37" width="41.62" height="41.62"/>
        <rect class="cls-2" x="142.66" y="69.37" width="41.62" height="41.62"/>
    </g>
</svg>
