<?xml version="1.0" ?><svg style="enable-background:new 0 0 48 48;" version="1.1" viewBox="0 0 48 48" xml:space="preserve" xmlns="http://www.w3.org/2000/svg" xmlns:xlink="http://www.w3.org/1999/xlink"><g id="Icons"><g id="Icons_3_"><g><path d="M34.9549,10.525h-21.91c-1.3899,0-2.5199,1.13-2.5199,2.52v21.91c0,1.39,1.13,2.52,2.5199,2.52     h21.91c1.3901,0,2.5201-1.13,2.5201-2.52V13.0449C37.475,11.655,36.345,10.525,34.9549,10.525z M19.415,31.335     c-0.95-0.01-1.9101-0.01-2.8701,0c-0.18,0-0.23-0.05-0.23-0.24v-10.14c0-0.19,0.06-0.24,0.24-0.24     c0.95,0.01,1.9101,0.01,2.8601,0c0.1899,0,0.24,0.06,0.23,0.24v5.08c0,1.69,0,3.3799,0.01,5.07     C19.655,31.285,19.595,31.335,19.415,31.335z M17.9849,19.3549c-1.06,0.0101-1.93-0.8799-1.93-1.9299     c0.01-1.0101,0.7801-1.92,1.9201-1.93c1.0799-0.01,1.94,0.81,1.94,1.93C19.915,18.525,19.0749,19.345,17.9849,19.3549z      M31.645,31.335h-2.81c-0.2301,0-0.24-0.01-0.24-0.25v-5.14c0-0.48-0.01-0.96-0.1501-1.43c-0.2199-0.73-0.69-1.08-1.46-1.1001     c-0.54-0.0099-1.05,0.0901-1.43,0.5101c-0.31,0.33-0.44,0.73-0.5,1.17c-0.0399,0.3899-0.07,0.79-0.07,1.19     c-0.0099,1.61-0.0099,3.22,0,4.8199c0,0.1801-0.05,0.2301-0.2199,0.2301c-0.9601-0.01-1.93-0.01-2.8901,0     c-0.1699,0-0.2299-0.05-0.2299-0.2301c0.01-3.3799,0.01-6.7699,0-10.1599c0-0.18,0.07-0.23,0.2299-0.23     c0.92,0.01,1.8401,0.01,2.7601,0c0.1799,0,0.2399,0.07,0.2299,0.24c-0.01,0.37,0,0.75,0,1.12     c0.5201-0.77,1.2201-1.26,2.1001-1.48c1.0199-0.25,2.0299-0.17,2.99,0.25c0.93,0.4,1.43,1.16,1.69,2.1     c0.18,0.61,0.26,1.24,0.27,1.88c0.0099,2.07,0.0199,4.14,0.03,6.22C31.9449,31.335,31.9449,31.335,31.645,31.335z" style="fill:#0097D3;"/></g></g></g></svg>