<?xml version="1.0" encoding="UTF-8" standalone="no"?>
<!DOCTYPE svg PUBLIC "-//W3C//DTD SVG 1.1//EN" "http://www.w3.org/Graphics/SVG/1.1/DTD/svg11.dtd">
<svg width="100%" height="100%" viewBox="0 0 215 215" version="1.1" xmlns="http://www.w3.org/2000/svg" xmlns:xlink="http://www.w3.org/1999/xlink" xml:space="preserve" xmlns:serif="http://www.serif.com/" style="fill-rule:evenodd;clip-rule:evenodd;stroke-linecap:round;stroke-linejoin:round;stroke-miterlimit:1.5;">
    <g transform="matrix(1.30968,0,0,1.30968,-33.2903,-29.3613)">
        <g transform="matrix(1,0,0,1,3.5,-9)">
            <ellipse cx="104" cy="55" rx="60" ry="19" style="fill:white;stroke:white;stroke-width:7.64px;"/>
        </g>
        <g transform="matrix(1,0,0,1,3.5,-69)">
            <path d="M164,232C164,242.486 137.115,251 104,251C70.885,251 44,242.486 44,232L44,115L44,115.061C44.108,125.52 70.951,134 104,134C137.115,134 164,125.486 164,115L164,232Z" style="fill:none;stroke:white;stroke-width:7.64px;"/>
        </g>
        <g transform="matrix(1,0,0,1,0,63.2398)">
            <path d="M62,77.38C73.006,81.432 89.313,84 107.5,84C125.687,84 141.994,81.432 153,77.38L153,99.38C141.994,103.432 125.687,106 107.5,106C89.313,106 73.006,103.432 62,99.38L62,77.38Z" style="fill:white;"/>
        </g>
        <path d="M128,100.86C121.602,101.598 114.698,102 107.5,102C89.313,102 73.006,99.432 62,95.38L62,73.38C73.006,77.432 89.313,80 107.5,80C114.698,80 121.602,79.598 128,78.86L128,100.86Z" style="fill:white;"/>
        <path d="M140,132.09C130.634,134.007 119.474,135.12 107.5,135.12C89.313,135.12 73.006,132.552 62,128.5L62,106.5C73.006,110.552 89.313,113.12 107.5,113.12C119.474,113.12 130.634,112.007 140,110.09L140,132.09Z" style="fill:white;"/>
    </g>
</svg>
