<svg width="23" height="23" viewBox="0 0 23 23" fill="none" xmlns="http://www.w3.org/2000/svg">
<g opacity="0.5">
<path d="M19.5793 7.17997V4.95326C19.5793 3.87897 18.7003 3 17.6261 3H3.95326C2.8692 3 2 3.87897 2 4.95326V18.6261C2 19.7004 2.8692 20.5794 3.95326 20.5794H17.6261C18.7003 20.5794 19.5793 19.7004 19.5793 18.6261V16.3994C20.1555 16.0576 20.5559 15.4423 20.5559 14.7196V8.85977C20.5559 8.13707 20.1555 7.52179 19.5793 7.17997ZM18.6027 8.85977V14.7196H11.7663V8.85977H18.6027ZM3.95326 18.6261V4.95326H17.6261V6.90651H11.7663C10.692 6.90651 9.81303 7.78548 9.81303 8.85977V14.7196C9.81303 15.7939 10.692 16.6728 11.7663 16.6728H17.6261V18.6261H3.95326Z" fill="white"/>
<path d="M14.6962 13.2546C15.5052 13.2546 16.1611 12.5987 16.1611 11.7897C16.1611 10.9805 15.5052 10.3247 14.6962 10.3247C13.8871 10.3247 13.2312 10.9805 13.2312 11.7897C13.2312 12.5987 13.8871 13.2546 14.6962 13.2546Z" fill="white"/>
</g>
</svg>
