<?xml version="1.0" encoding="utf-8"?>
<!-- Generator: Adobe Illustrator 17.0.0, SVG Export Plug-In . SVG Version: 6.00 Build 0)  -->
<!DOCTYPE svg PUBLIC "-//W3C//DTD SVG 1.1//EN" "http://www.w3.org/Graphics/SVG/1.1/DTD/svg11.dtd">
<svg version="1.1" id="Layer_1" xmlns="http://www.w3.org/2000/svg" xmlns:xlink="http://www.w3.org/1999/xlink" x="0px" y="0px"
	 width="298px" height="109px" viewBox="0 0 298 109" enable-background="new 0 0 298 109" xml:space="preserve">
<g>
	<g>
		<path fill="#FFFFFF" d="M183.537,67.645c0-5.045,0.777-9.561,2.332-13.556c1.555-3.992,3.614-7.377,6.179-10.151
			c2.564-2.774,5.486-4.896,8.764-6.368c3.279-1.469,6.684-2.206,10.214-2.206c3.866,0,7.334,0.674,10.404,2.017
			c3.067,1.346,5.631,3.279,7.692,5.801c2.058,2.522,3.634,5.549,4.728,9.079c1.092,3.532,1.64,7.484,1.64,11.854
			c0,2.269-0.126,4.161-0.378,5.673H193.75c0.421,6.642,2.46,11.897,6.116,15.763c3.658,3.869,8.427,5.801,14.313,5.801
			c2.941,0,5.653-0.441,8.133-1.324c2.479-0.883,4.855-2.038,7.125-3.467l3.656,6.808c-2.692,1.683-5.673,3.153-8.953,4.414
			c-3.278,1.261-7.021,1.891-11.222,1.891c-4.121,0-7.966-0.736-11.539-2.206c-3.574-1.47-6.684-3.573-9.331-6.305
			c-2.648-2.731-4.729-6.072-6.242-10.025C184.293,77.187,183.537,72.689,183.537,67.645z M226.41,62.98
			c0-6.305-1.324-11.117-3.971-14.439c-2.648-3.321-6.368-4.981-11.159-4.981c-2.187,0-4.269,0.441-6.242,1.324
			c-1.976,0.883-3.763,2.145-5.36,3.784c-1.598,1.639-2.922,3.656-3.971,6.052c-1.053,2.397-1.746,5.152-2.082,8.261H226.41z"/>
		<path fill="#FFFFFF" d="M255.79,66.132l-18.536-29.256h11.222l8.196,13.493c0.924,1.683,1.891,3.385,2.9,5.108
			c1.01,1.724,2.06,3.426,3.153,5.106h0.504c0.924-1.68,1.849-3.382,2.774-5.106c0.925-1.723,1.849-3.425,2.775-5.108l7.44-13.493
			h10.844l-18.536,30.39l19.923,30.895h-11.222l-8.953-14.25c-1.094-1.847-2.187-3.697-3.279-5.549
			c-1.094-1.847-2.228-3.656-3.404-5.421h-0.504c-1.094,1.765-2.145,3.552-3.153,5.358c-1.009,1.809-2.017,3.68-3.026,5.612
			l-8.323,14.25H235.74L255.79,66.132z"/>
		<path fill="#FFFFFF" d="M181.116,91.189c-1.091,0.243-1.576,0.243-2.182,0.243c-1.253,0-2.412-0.908-2.71-3.174V8.378h-10.467
			v23.581l0.449,9.298v1.124c-2.672-2.164-5.302-3.875-7.888-5.127c-2.608-1.261-5.675-1.891-9.207-1.891
			c-3.53,0-6.893,0.756-10.088,2.269c-3.196,1.514-6.011,3.658-8.449,6.431c-2.439,2.774-4.394,6.159-5.864,10.151
			c-1.472,3.995-2.206,8.471-2.206,13.43c0,10.258,2.29,18.158,6.873,23.707c4.581,5.549,10.739,8.323,18.473,8.323
			c3.614,0,6.999-0.862,10.152-2.585c3.152-1.723,5.946-3.762,8.386-6.116h0.189c1.006,5.65,4.144,8.701,10.175,8.701
			c2.667,0,4.364-0.363,5.697-0.969L181.116,91.189z M165.757,82.525c-2.522,2.859-5.043,4.981-7.565,6.368
			c-2.523,1.387-5.215,2.08-8.07,2.08c-5.382,0-9.542-2.058-12.485-6.179c-2.944-4.118-4.414-9.876-4.414-17.275
			c0-3.53,0.462-6.725,1.388-9.583c0.924-2.857,2.184-5.316,3.782-7.377c1.596-2.06,3.467-3.658,5.612-4.792
			c2.143-1.135,4.433-1.702,6.873-1.702c2.522,0,4.98,0.485,7.377,1.45c2.395,0.968,4.895,2.629,7.502,4.981V82.525z"/>
	</g>
	<g>
		<path fill="#FFFFFF" d="M93.012,51.878c7.588-3.55,12.764-10.49,14.175-18.53C101.063,19.699,89.329,9.358,74.76,5.155
			c4.923,7.133,7.272,15.583,6.771,24.17C87.978,34.77,92.383,42.854,93.012,51.878z M31.937,38.845
			c-8.207-1.045-16.333,1.973-21.858,8.054c-2.183,15.088,2.457,30.245,12.687,41.563c-0.527-8.64,1.856-17.306,6.831-24.483
			C26.857,55.352,27.987,46.248,31.937,38.845z M37.677,77.231c-2.997,8.079-1.755,17.193,3.642,24.215
			c12.155,4.943,26.051,5.146,38.643-0.035c-7.818-2.516-14.886-7.518-19.887-14.731C51.9,86.533,43.791,83.336,37.677,77.231z
			 M67.788,22.506c-1.506-8.158-7.053-15.383-15.229-18.732C38.445,6.015,25.411,14.27,17.426,26.935
			c8.115-2.487,16.74-2.178,24.529,0.639C49.482,22.312,58.71,20.448,67.788,22.506z M90.557,66.761
			c-3.086,7.399-8.722,13.188-15.678,16.61c6.194,5.604,14.805,7.758,22.852,5.834c9.054-9.587,13.884-22.198,13.9-35.009
			C106.215,60.502,98.797,64.974,90.557,66.761z"/>
		<g>
			<circle fill="#FFFFFF" cx="60.702" cy="54.196" r="15.972"/>
		</g>
	</g>
</g>
</svg>
